<svg id="Layer_1" data-name="Layer 1" xmlns="http://www.w3.org/2000/svg" xmlns:xlink="http://www.w3.org/1999/xlink" viewBox="0 0 1200 1200">
  <defs>
    <style>
      .cls-1 {
        fill: none;
      }

      .cls-2 {
        fill: #fff;
      }

      .cls-3 {
        clip-path: url(#clip-path);
      }

      .cls-4 {
        clip-path: url(#clip-path-2);
      }

      .cls-5 {
        clip-path: url(#clip-path-3);
      }

      .cls-6 {
        clip-path: url(#clip-path-4);
      }

      .cls-7 {
        clip-path: url(#clip-path-5);
      }

      .cls-8 {
        clip-path: url(#clip-path-6);
      }

      .cls-9 {
        clip-path: url(#clip-path-7);
      }

      .cls-10 {
        clip-path: url(#clip-path-8);
      }

      .cls-11 {
        fill: #009ce2;
      }

      .cls-12 {
        clip-path: url(#clip-path-9);
      }

      .cls-13 {
        clip-path: url(#clip-path-10);
      }

      .cls-14 {
        clip-path: url(#clip-path-11);
      }

      .cls-15 {
        clip-path: url(#clip-path-12);
      }

      .cls-16 {
        clip-path: url(#clip-path-13);
      }

      .cls-17 {
        clip-path: url(#clip-path-15);
      }
    </style>
    <clipPath id="clip-path">
      <path class="cls-1" d="M966.551,3835.874a47.4,47.4,0,1,1,33.516-13.883A47.4,47.4,0,0,1,966.551,3835.874Zm0-216.434a169.038,169.038,0,1,0,119.527,49.51A169.038,169.038,0,0,0,966.551,3619.44Z"/>
    </clipPath>
    <clipPath id="clip-path-2">
      <polygon class="cls-1" points="1357.825 3749.341 1357.825 3632.123 1485.31 3632.123 1485.31 3945.933 1357.825 3945.933 1357.825 3828.714 1298.986 3828.714 1298.986 3945.933 1171.497 3945.933 1171.497 3632.123 1298.986 3632.123 1298.986 3749.341 1357.825 3749.341"/>
    </clipPath>
    <clipPath id="clip-path-3">
      <polygon class="cls-1" points="1566.943 3815.846 1601.468 3552.035 1687.263 3569.537 1615.665 3825.789 1566.943 3815.846"/>
    </clipPath>
    <clipPath id="clip-path-4">
      <circle class="cls-1" cx="1573.631" cy="3902.345" r="49.034"/>
    </clipPath>
    <clipPath id="clip-path-5">
      <path class="cls-1" d="M-386.917,3504.938a47.4,47.4,0,0,1-47.4-47.4,47.4,47.4,0,0,1,47.4-47.4,47.4,47.4,0,0,1,47.4,47.4,47.392,47.392,0,0,1-13.881,33.515A47.4,47.4,0,0,1-386.917,3504.938Zm0-216.434a169.038,169.038,0,0,0-169.037,169.037,169.038,169.038,0,0,0,169.037,169.037A169.038,169.038,0,0,0-217.88,3457.541a169.041,169.041,0,0,0-49.51-119.527A169.029,169.029,0,0,0-386.917,3288.5Z"/>
    </clipPath>
    <clipPath id="clip-path-6">
      <polygon class="cls-1" points="4.358 3418.405 4.358 3301.187 131.842 3301.187 131.842 3614.997 4.358 3614.997 4.358 3497.778 -54.482 3497.778 -54.482 3614.997 -181.971 3614.997 -181.971 3301.187 -54.482 3301.187 -54.482 3418.405 4.358 3418.405"/>
    </clipPath>
    <clipPath id="clip-path-7">
      <polygon class="cls-1" points="213.475 3484.911 248.001 3221.099 333.795 3238.601 262.198 3494.853 213.475 3484.911"/>
    </clipPath>
    <clipPath id="clip-path-8">
      <circle class="cls-1" cx="220.163" cy="3571.409" r="49.034"/>
    </clipPath>
    <clipPath id="clip-path-9">
      <polygon class="cls-2" points="706.182 555.771 706.182 424.467 848.985 424.467 848.985 775.986 706.182 775.986 706.182 644.682 640.272 644.682 640.272 775.986 497.463 775.986 497.463 424.467 640.272 424.467 640.272 555.771 706.182 555.771"/>
    </clipPath>
    <clipPath id="clip-path-10">
      <rect class="cls-2" x="-9401.55" y="-5060.443" width="10789.433" height="6069.056"/>
    </clipPath>
    <clipPath id="clip-path-11">
      <polygon class="cls-2" points="934.864 630.268 973.537 334.755 1069.642 354.361 989.44 641.405 934.864 630.268"/>
    </clipPath>
    <clipPath id="clip-path-12">
      <rect class="cls-2" x="-9418.098" y="-5054.342" width="10789.433" height="6069.056"/>
    </clipPath>
    <clipPath id="clip-path-13">
      <circle class="cls-2" cx="942.354" cy="727.16" r="54.925"/>
    </clipPath>
    <clipPath id="clip-path-15">
      <polygon class="cls-2" points="2122.879 548.53 2122.879 390.248 2295.023 390.248 2295.023 813.991 2122.879 813.991 2122.879 655.708 2043.427 655.708 2043.427 813.991 1871.277 813.991 1871.277 390.248 2043.427 390.248 2043.427 548.53 2122.879 548.53"/>
    </clipPath>
  </defs>
  <circle class="cls-11" cx="600" cy="600" r="575"/>
  <path class="cls-2" d="M410.127,465.719a189.342,189.342,0,0,0-133.89-55.459c-104.573,0-189.349,84.775-189.349,189.349s84.776,189.35,189.349,189.35,189.349-84.775,189.349-189.35A189.349,189.349,0,0,0,410.127,465.719ZM313.781,637.151a53.093,53.093,0,1,1,15.549-37.542A53.093,53.093,0,0,1,313.781,637.151Z"/>
  <g>
    <polygon class="cls-2" points="706.182 555.771 706.182 424.467 848.985 424.467 848.985 775.986 706.182 775.986 706.182 644.682 640.272 644.682 640.272 775.986 497.463 775.986 497.463 424.467 640.272 424.467 640.272 555.771 706.182 555.771"/>
    <g class="cls-12">
      <g>
        <rect class="cls-2" x="-9401.55" y="-5060.443" width="10789.433" height="6069.056"/>
        <g class="cls-13">
          <rect class="cls-2" x="469.365" y="396.369" width="407.717" height="407.714"/>
        </g>
      </g>
    </g>
  </g>
  <g>
    <polygon class="cls-2" points="934.864 630.268 973.537 334.755 1069.642 354.361 989.44 641.405 934.864 630.268"/>
    <g class="cls-14">
      <g>
        <rect class="cls-2" x="-9418.098" y="-5054.342" width="10789.433" height="6069.056"/>
        <g class="cls-15">
          <rect class="cls-2" x="906.766" y="306.658" width="190.973" height="362.845"/>
        </g>
      </g>
    </g>
  </g>
  <g>
    <circle class="cls-2" cx="942.354" cy="727.16" r="54.925"/>
    <g class="cls-16">
      <g>
        <rect class="cls-2" x="-9418.098" y="-5054.342" width="10789.433" height="6069.056"/>
        <g class="cls-15">
          <rect class="cls-2" x="859.332" y="644.136" width="166.045" height="166.049"/>
        </g>
      </g>
    </g>
  </g>
  <g>
    <polygon class="cls-2" points="2122.879 548.53 2122.879 390.248 2295.023 390.248 2295.023 813.991 2122.879 813.991 2122.879 655.708 2043.427 655.708 2043.427 813.991 1871.277 813.991 1871.277 390.248 2043.427 390.248 2043.427 548.53 2122.879 548.53"/>
    <g class="cls-17">
      <rect class="cls-2" x="-10061.595" y="-6221.596" width="13006.239" height="7316.009"/>
    </g>
  </g>
</svg>
