<svg id="Layer_1" data-name="Layer 1" xmlns="http://www.w3.org/2000/svg" xmlns:xlink="http://www.w3.org/1999/xlink" viewBox="0 0 1200 1200">
  <defs>
    <style>
      .cls-1 {
        fill: none;
      }

      .cls-2 {
        fill: #fff;
      }

      .cls-3 {
        clip-path: url(#clip-path);
      }

      .cls-4 {
        clip-path: url(#clip-path-2);
      }

      .cls-5 {
        clip-path: url(#clip-path-3);
      }

      .cls-6 {
        clip-path: url(#clip-path-4);
      }

      .cls-7 {
        fill: #009ce2;
      }

      .cls-8 {
        clip-path: url(#clip-path-5);
      }

      .cls-9 {
        clip-path: url(#clip-path-6);
      }

      .cls-10 {
        clip-path: url(#clip-path-7);
      }

      .cls-11 {
        clip-path: url(#clip-path-8);
      }

      .cls-12 {
        clip-path: url(#clip-path-9);
      }

      .cls-13 {
        fill: #2775ca;
      }
    </style>
    <clipPath id="clip-path">
      <path class="cls-1" d="M-292.459,3835.874a47.4,47.4,0,0,1-47.4-47.4,47.4,47.4,0,0,1,47.4-47.4,47.4,47.4,0,0,1,47.4,47.4,47.392,47.392,0,0,1-13.881,33.514A47.4,47.4,0,0,1-292.459,3835.874Zm0-216.434a169.038,169.038,0,0,0-169.036,169.037,169.038,169.038,0,0,0,169.036,169.037,169.038,169.038,0,0,0,169.037-169.037,169.038,169.038,0,0,0-49.509-119.527A169.032,169.032,0,0,0-292.459,3619.44Z"/>
    </clipPath>
    <clipPath id="clip-path-2">
      <polygon class="cls-1" points="98.816 3749.341 98.816 3632.123 226.3 3632.123 226.3 3945.933 98.816 3945.933 98.816 3828.714 39.976 3828.714 39.976 3945.933 -87.513 3945.933 -87.513 3632.123 39.976 3632.123 39.976 3749.341 98.816 3749.341"/>
    </clipPath>
    <clipPath id="clip-path-3">
      <polygon class="cls-1" points="307.934 3815.846 342.459 3552.035 428.254 3569.537 356.656 3825.789 307.934 3815.846"/>
    </clipPath>
    <clipPath id="clip-path-4">
      <circle class="cls-1" cx="314.621" cy="3902.345" r="49.034"/>
    </clipPath>
    <clipPath id="clip-path-5">
      <polygon class="cls-2" points="-552.827 555.771 -552.827 424.467 -410.024 424.467 -410.024 775.986 -552.827 775.986 -552.827 644.682 -618.738 644.682 -618.738 775.986 -761.546 775.986 -761.546 424.467 -618.738 424.467 -618.738 555.771 -552.827 555.771"/>
    </clipPath>
    <clipPath id="clip-path-6">
      <polygon class="cls-2" points="-324.146 630.268 -285.472 334.755 -189.368 354.361 -269.569 641.405 -324.146 630.268"/>
    </clipPath>
    <clipPath id="clip-path-7">
      <circle class="cls-2" cx="-316.655" cy="727.16" r="54.925"/>
    </clipPath>
    <clipPath id="clip-path-8">
      <polygon class="cls-2" points="863.87 548.53 863.87 390.248 1036.014 390.248 1036.014 813.991 863.87 813.991 863.87 655.708 784.418 655.708 784.418 813.991 612.267 813.991 612.267 390.248 784.418 390.248 784.418 548.53 863.87 548.53"/>
    </clipPath>
    <clipPath id="clip-path-9">
      <rect class="cls-2" x="-11320.604" y="-6221.596" width="13006.239" height="7316.009"/>
    </clipPath>
  </defs>
  <circle class="cls-7" cx="600" cy="600" r="575"/>
  <g>
    <polygon class="cls-2" points="-552.827 555.771 -552.827 424.467 -410.024 424.467 -410.024 775.986 -552.827 775.986 -552.827 644.682 -618.738 644.682 -618.738 775.986 -761.546 775.986 -761.546 424.467 -618.738 424.467 -618.738 555.771 -552.827 555.771"/>
    <g class="cls-8">
      <rect class="cls-2" x="-10660.559" y="-5060.443" width="10789.433" height="6069.056"/>
    </g>
  </g>
  <g>
    <polygon class="cls-2" points="-324.146 630.268 -285.472 334.755 -189.368 354.361 -269.569 641.405 -324.146 630.268"/>
    <g class="cls-9">
      <rect class="cls-2" x="-10677.107" y="-5054.342" width="10789.433" height="6069.056"/>
    </g>
  </g>
  <g>
    <circle class="cls-2" cx="-316.655" cy="727.16" r="54.925"/>
    <g class="cls-10">
      <rect class="cls-2" x="-10677.107" y="-5054.342" width="10789.433" height="6069.056"/>
    </g>
  </g>
  <g>
    <polygon class="cls-2" points="863.87 548.53 863.87 390.248 1036.014 390.248 1036.014 813.991 863.87 813.991 863.87 655.708 784.418 655.708 784.418 813.991 612.267 813.991 612.267 390.248 784.418 390.248 784.418 548.53 863.87 548.53"/>
    <g class="cls-11">
      <g>
        <rect class="cls-2" x="-11320.604" y="-6221.596" width="13006.239" height="7316.009"/>
        <g class="cls-12">
          <rect class="cls-2" x="578.397" y="356.378" width="491.486" height="491.483"/>
        </g>
      </g>
    </g>
  </g>
  <path class="cls-2" d="M343.254,368.724A232.652,232.652,0,1,0,575.905,601.375,232.092,232.092,0,0,0,343.254,368.724ZM299.631,762.293c0,1.938,0,2.908-.97,3.876a5.894,5.894,0,0,1-8.724,3.879A174.389,174.389,0,0,1,176.519,656.63c-29.081-92.09,21.328-190,113.418-219.08.97-.968,2.908-.968,3.878-.968,3.878.968,5.816,3.875,5.816,7.754v13.57c0,4.849-1.938,7.757-5.816,9.695-39.744,14.541-71.733,45.56-86.274,86.274C179.427,628.519,218.2,712.855,293.815,740c2.908,1.94,5.816,5.816,5.816,8.724Zm59.133-49.438c-.97,4.846-3.878,7.754-7.756,7.754H336.467c-4.846-.97-7.754-3.878-7.754-7.754V689.59c-31.99-4.849-47.5-22.3-51.376-46.531v-.97a6.625,6.625,0,0,1,6.784-6.786H300.6c2.908,0,5.816,1.94,6.784,5.816,2.908,14.541,11.632,25.206,36.838,25.206,18.416,0,31.989-10.663,31.989-26.174s-8.724-21.327-35.867-26.173c-40.715-4.848-60.1-17.449-60.1-49.438,0-24.235,18.417-43.622,47.5-47.5V494.744c.97-4.848,3.878-7.756,7.756-7.756H350.04c4.846.97,7.754,3.878,7.754,7.756v23.265a48.429,48.429,0,0,1,43.622,39.744v.97a6.626,6.626,0,0,1-6.786,6.784H379.122a7.291,7.291,0,0,1-6.787-4.845c-4.846-14.541-14.541-20.358-31.989-20.358-19.388,0-29.082,8.723-29.082,22.3s5.816,21.327,34.9,25.206c40.713,4.846,61.071,16.479,61.071,50.406h0c0,26.173-19.387,46.53-48.469,51.379Zm37.806,58.163c-.97.967-2.908.967-3.878.967-3.878-.967-5.817-3.875-5.817-7.754v-13.57c0-4.849,1.939-7.757,5.817-9.695,39.744-14.541,71.733-45.56,86.274-86.274,28.113-74.644-10.662-158.98-86.274-186.121-2.908-1.94-5.817-5.816-5.817-9.7v-13.57c0-1.94,0-2.908.971-3.878a5.893,5.893,0,0,1,8.724-3.878A175.812,175.812,0,0,1,509.988,551.937C539.069,644.027,488.66,741.936,396.57,771.018Z"/>
  <path class="cls-13" d="M343.254,807.348A205.973,205.973,0,1,0,137.281,601.375,205.478,205.478,0,0,0,343.254,807.348Z"/>
  <path class="cls-2" d="M403.136,636.839c0-32.664-19.6-43.863-58.8-48.529-28-3.734-33.6-11.2-33.6-24.266s9.333-21.465,28-21.465c16.8,0,26.133,5.6,30.8,19.6a7.019,7.019,0,0,0,6.534,4.665H391a6.379,6.379,0,0,0,6.534-6.531v-.934a46.626,46.626,0,0,0-42-38.264v-22.4c0-3.734-2.8-6.534-7.465-7.468h-14c-3.734,0-6.534,2.8-7.468,7.468V520.18c-28,3.734-45.729,22.4-45.729,45.732,0,30.8,18.665,42.929,57.862,47.6,26.133,4.665,34.532,10.265,34.532,25.2s-13.067,25.2-30.8,25.2c-24.267,0-32.666-10.268-35.466-24.267-.932-3.732-3.732-5.6-6.531-5.6H284.609a6.379,6.379,0,0,0-6.531,6.534v.934c3.732,23.33,18.665,40.129,49.463,44.8v22.4c0,3.731,2.8,6.531,7.465,7.465h14c3.733,0,6.533-2.8,7.467-7.465V686.3c28-4.668,46.663-24.266,46.663-49.465Z"/>
  <path class="cls-2" d="M298.174,724.1c-66.941-24.029-101.27-98.694-76.381-164.778,12.874-36.045,41.195-63.507,76.381-76.381,3.434-1.715,5.149-4.29,5.149-8.582V462.344c0-3.433-1.715-6.008-5.149-6.865-.859,0-2.575,0-3.433.857-81.53,25.746-126.158,112.428-100.412,193.958A154.391,154.391,0,0,0,294.741,750.705a5.217,5.217,0,0,0,7.723-3.433c.859-.857.859-1.716.859-3.432V731.824C303.323,729.249,300.749,725.818,298.174,724.1Zm90.972-267.764a5.218,5.218,0,0,0-7.724,3.434c-.859.858-.859,1.715-.859,3.433v12.014c0,3.434,2.575,6.865,5.149,8.583,66.941,24.029,101.271,98.694,76.381,164.778-12.873,36.045-41.195,63.507-76.381,76.381-3.433,1.715-5.149,4.29-5.149,8.583v12.014c0,3.433,1.716,6.008,5.149,6.865.859,0,2.575,0,3.434-.857,81.53-25.746,126.158-112.428,100.411-193.958a155.654,155.654,0,0,0-100.411-101.27Z"/>
</svg>
